# xmcd
#
# Track frame offsets:
#       150
#       18344
#       36749
#       55086
#       72113
#       91994
#       118262
#       135736
#       149704
#       170159
#
# Disc length: 2529 seconds
#
# Revision: 5
# Processed by: cddbd v1.4PL0 Copyright (c) Steve Scherf et al.
# Submitted via: WhereIsIt 3.11
#
DISCID=9a09df0a
DTITLE=Alain Souchon - Au Ras des Paquerettes
DYEAR=1900
DGENRE=
TTITLE0=Pardon
TTITLE1=Le Baiser
TTITLE2=Tailler la Zone
TTITLE3=Rive Gauche
TTITLE4=L'Horrible Bye-Bye
TTITLE5=Au Ras des Pâquerettes
TTITLE6=Menti
TTITLE7=Petit Tas Tombé
TTITLE8=Une Guitare Un Citoyen
TTITLE9=Caterpillar
EXTD=
EXTT0=
EXTT1=
EXTT2=
EXTT3=
EXTT4=
EXTT5=
EXTT6=
EXTT7=
EXTT8=
EXTT9=
PLAYORDER=
